<?xml version="1.0" encoding="UTF-8"?>
<!DOCTYPE svg PUBLIC "-//W3C//DTD SVG 1.1//EN" "http://www.w3.org/Graphics/SVG/1.1/DTD/svg11.dtd">
<svg xmlns="http://www.w3.org/2000/svg" version="1.1" width="1124px" height="1128px" style="shape-rendering:geometricPrecision; text-rendering:geometricPrecision; image-rendering:optimizeQuality; fill-rule:evenodd; clip-rule:evenodd" xmlns:xlink="http://www.w3.org/1999/xlink">
<g><path style="opacity:1" fill="#00b3ff" d="M -0.5,-0.5 C 189.5,-0.5 379.5,-0.5 569.5,-0.5C 569.333,94.1673 569.5,188.834 570,283.5C 736.311,188.933 902.477,94.266 1068.5,-0.5C 1086.83,-0.5 1105.17,-0.5 1123.5,-0.5C 1123.5,23.5 1123.5,47.5 1123.5,71.5C 939.059,175.89 754.726,280.556 570.5,385.5C 569.832,504.068 569.166,622.568 568.5,741C 378.811,848.51 189.144,956.01 -0.5,1063.5C -0.5,708.833 -0.5,354.167 -0.5,-0.5 Z"/></g>
<g><path style="opacity:1" fill="#fefeff" d="M 569.5,-0.5 C 735.833,-0.5 902.167,-0.5 1068.5,-0.5C 902.477,94.266 736.311,188.933 570,283.5C 569.5,188.834 569.333,94.1673 569.5,-0.5 Z"/></g>
<g><path style="opacity:1" fill="#fefeff" d="M 1123.5,71.5 C 1123.5,423.5 1123.5,775.5 1123.5,1127.5C 939.167,1127.5 754.833,1127.5 570.5,1127.5C 570.833,1032.5 570.5,937.498 569.5,842.5C 568.893,842.624 568.56,842.957 568.5,843.5C 401.505,937.662 234.839,1032.33 68.5,1127.5C 45.5,1127.5 22.5,1127.5 -0.5,1127.5C -0.5,1106.17 -0.5,1084.83 -0.5,1063.5C 189.144,956.01 378.811,848.51 568.5,741C 569.166,622.568 569.832,504.068 570.5,385.5C 754.726,280.556 939.059,175.89 1123.5,71.5 Z"/></g>
<g><path style="opacity:1" fill="#97dfff" d="M 492.5,527.5 C 490.875,530.891 489.875,534.558 489.5,538.5C 489.5,534.5 489.5,530.5 489.5,526.5C 490.791,526.263 491.791,526.596 492.5,527.5 Z"/></g>
<g><path style="opacity:1" fill="#f4fbff" d="M 492.5,527.5 C 495.88,527.179 496.713,528.179 495,530.5C 494.503,533.146 494.336,535.813 494.5,538.5C 500.727,539.378 506.227,538.044 511,534.5C 513.298,535.961 515.465,537.628 517.5,539.5C 517.291,540.086 516.957,540.586 516.5,541C 509.174,541.5 501.841,541.666 494.5,541.5C 494.5,544.5 494.5,547.5 494.5,550.5C 500.176,550.666 505.843,550.499 511.5,550C 512.685,548.647 514.019,547.48 515.5,546.5C 518.313,548.3 520.313,550.633 521.5,553.5C 502.47,554.154 483.803,553.487 465.5,551.5C 473.833,551.5 482.167,551.5 490.5,551.5C 490.5,547.833 490.5,544.167 490.5,540.5C 483.087,541.128 476.087,540.461 469.5,538.5C 476.167,538.5 482.833,538.5 489.5,538.5C 489.875,534.558 490.875,530.891 492.5,527.5 Z"/></g>
<g><path style="opacity:1" fill="#15b7ff" d="M 665.5,530.5 C 667.924,530.192 670.257,530.526 672.5,531.5C 672.167,532.5 671.5,533.167 670.5,533.5C 669.5,557.824 669.167,582.158 669.5,606.5C 668.167,606.5 666.833,606.5 665.5,606.5C 665.5,581.167 665.5,555.833 665.5,530.5 Z"/></g>
<g><path style="opacity:1" fill="#ecf9ff" d="M 444.5,530.5 C 450.49,531.581 455.324,534.581 459,539.5C 459.667,541.167 459.667,542.833 459,544.5C 457.951,545.517 456.784,545.684 455.5,545C 452.411,539.619 448.744,534.786 444.5,530.5 Z"/></g>
<g><path style="opacity:1" fill="#27b9ff" d="M 611.5,531.5 C 613.857,531.337 616.19,531.503 618.5,532C 617.667,532.833 616.833,533.667 616,534.5C 615.855,549.531 615.188,564.531 614,579.5C 612.509,590.483 607.842,599.816 600,607.5C 599.5,607 599,606.5 598.5,606C 605.211,597.733 609.044,588.233 610,577.5C 611.359,562.203 611.859,546.869 611.5,531.5 Z"/></g>
<g><path style="opacity:1" fill="#16b7ff" d="M 637.5,533.5 C 639.924,533.192 642.257,533.526 644.5,534.5C 644.167,535.5 643.5,536.167 642.5,536.5C 641.833,556.833 641.167,577.167 640.5,597.5C 639.833,597.833 639.167,598.167 638.5,598.5C 637.5,576.844 637.167,555.177 637.5,533.5 Z"/></g>
<g><path style="opacity:1" fill="#c6edff" d="M 469.5,538.5 C 476.087,540.461 483.087,541.128 490.5,540.5C 490.5,544.167 490.5,547.833 490.5,551.5C 482.167,551.5 473.833,551.5 465.5,551.5C 473.316,550.508 481.316,550.174 489.5,550.5C 489.5,547.5 489.5,544.5 489.5,541.5C 482.5,541.5 475.5,541.5 468.5,541.5C 468.263,540.209 468.596,539.209 469.5,538.5 Z"/></g>
<g><path style="opacity:1" fill="#ecf9ff" d="M 463.5,540.5 C 464.586,540.62 465.253,541.287 465.5,542.5C 460.849,554.62 456.682,566.954 453,579.5C 453.102,587.496 453.102,595.496 453,603.5C 451.644,604.38 450.144,604.714 448.5,604.5C 448.83,598.132 448.496,591.798 447.5,585.5C 445.954,584.316 444.287,583.316 442.5,582.5C 444.167,581.833 445.833,581.167 447.5,580.5C 453.361,567.33 458.694,553.997 463.5,540.5 Z"/></g>
<g><path style="opacity:1" fill="#eef9ff" d="M 480.5,555.5 C 483.179,555.673 485.513,556.673 487.5,558.5C 481.317,564.17 474.65,569.337 467.5,574C 466.365,574.749 465.365,574.583 464.5,573.5C 470.291,567.926 475.624,561.926 480.5,555.5 Z"/></g>
<g><path style="opacity:1" fill="#f3fbff" d="M 499.5,557.5 C 505.066,557.175 510.399,558.675 515.5,562C 518.554,564.525 520.054,567.691 520,571.5C 518.951,572.517 517.784,572.684 516.5,572C 513.794,569.629 511.461,566.963 509.5,564C 506.014,562.004 502.681,559.837 499.5,557.5 Z"/></g>
<g><path style="opacity:1" fill="#f1faff" d="M 482.5,564.5 C 485.126,565.762 487.793,567.096 490.5,568.5C 487.611,568.876 485.611,570.376 484.5,573C 493.381,573.868 502.048,573.535 510.5,572C 514.127,574.112 514.127,575.779 510.5,577C 506.73,582.939 502.063,588.106 496.5,592.5C 498.457,594.485 500.79,595.985 503.5,597C 510.095,599.252 516.762,601.252 523.5,603C 521.085,605.805 518.085,606.805 514.5,606C 506.497,603.831 499.164,600.331 492.5,595.5C 481.785,601.294 470.451,605.294 458.5,607.5C 458.5,606.5 458.5,605.5 458.5,604.5C 469.098,602.911 478.931,599.245 488,593.5C 485.734,589.014 482.901,584.681 479.5,580.5C 475.46,584.542 471.127,588.209 466.5,591.5C 466.167,591.167 465.833,590.833 465.5,590.5C 473.195,583.098 478.861,574.431 482.5,564.5 Z"/></g>
<g><path style="opacity:1" fill="#1ab5ff" d="M 481.5,576.5 C 489.174,576.334 496.841,576.5 504.5,577C 501.662,582.337 497.662,586.503 492.5,589.5C 486.993,586.664 483.326,582.331 481.5,576.5 Z"/></g>
<g><path style="opacity:1" fill="#00b3ff" d="M 568.5,843.5 C 569.499,937.999 569.833,1032.67 569.5,1127.5C 402.5,1127.5 235.5,1127.5 68.5,1127.5C 234.839,1032.33 401.505,937.662 568.5,843.5 Z"/></g>
<g><path style="opacity:1" fill="#b3e8ff" d="M 568.5,843.5 C 568.56,842.957 568.893,842.624 569.5,842.5C 570.5,937.498 570.833,1032.5 570.5,1127.5C 570.167,1127.5 569.833,1127.5 569.5,1127.5C 569.833,1032.67 569.499,937.999 568.5,843.5 Z"/></g>
</svg>
